# xmcd
#
# Track frame offsets:
#	150
#	19661
#	36643
#	52359
#	72998
#	112833
#	135333
#	194547
#	281594
#	306167
#
# Disc length: 4124 seconds
#
# Revision: 1
# Processed by: cddbd v1.5.1PL0 Copyright (c) Steve Scherf et al.
# Submitted via: EasyCDDAExtractor 7.0.9.1
#
DISCID=95101a0a
DTITLE=Various Artist - The Allman Brothers Band At Fillmore East Remastered 
DTITLE=Deluxe Edition
DYEAR=1900
DGENRE=
TTITLE0=The Allman Brothers Band At Fillmore East Remastered Deluxe Edition - 
TTITLE0=Statesboro Blues
TTITLE1=The Allman Brothers Band At Fillmore East Remastered Deluxe Edition - 
TTITLE1=Trouble No More
TTITLE2=The Allman Brothers Band At Fillmore East Remastered Deluxe Edition - 
TTITLE2=Don't Keep Me Wonderin'
TTITLE3=The Allman Brothers Band At Fillmore East Remastered Deluxe Edition - 
TTITLE3=Done Somebody Wrong
TTITLE4=The Allman Brothers Band At Fillmore East Remastered Deluxe Edition - 
TTITLE4=Stormy Monday
TTITLE5=The Allman Brothers Band At Fillmore East Remastered Deluxe Edition - 
TTITLE5=One Way Out
TTITLE6=The Allman Brothers Band At Fillmore East Remastered Deluxe Edition - 
TTITLE6=In Memory Of Elizabeth Reed
TTITLE7=The Allman Brothers Band At Fillmore East Remastered Deluxe Edition - 
TTITLE7=You Don't Love Me
TTITLE8=The Allman Brothers Band At Fillmore East Remastered Deluxe Edition - 
TTITLE8=Midnight Rider
TTITLE9=Data Track
EXTD=
EXTT0=
EXTT1=
EXTT2=
EXTT3=
EXTT4=
EXTT5=
EXTT6=
EXTT7=
EXTT8=
EXTT9=
PLAYORDER=
